<?xml version="1.0" encoding="UTF-8" standalone="no"?>
<!-- Created with Inkscape (http://www.inkscape.org/) -->

<svg
   xmlns:osb="http://www.openswatchbook.org/uri/2009/osb"
   xmlns:dc="http://purl.org/dc/elements/1.1/"
   xmlns:cc="http://creativecommons.org/ns#"
   xmlns:rdf="http://www.w3.org/1999/02/22-rdf-syntax-ns#"
   xmlns:svg="http://www.w3.org/2000/svg"
   xmlns="http://www.w3.org/2000/svg"
   xmlns:sodipodi="http://sodipodi.sourceforge.net/DTD/sodipodi-0.dtd"
   xmlns:inkscape="http://www.inkscape.org/namespaces/inkscape"
   width="158.75mm"
   height="158.75mm"
   viewBox="0 0 158.75 158.75"
   version="1.1"
   id="svg8"
   inkscape:version="0.92.3 (2405546, 2018-03-11)"
   sodipodi:docname="moon.svg">
  <defs
     id="defs2">
    <marker
       inkscape:isstock="true"
       style="overflow:visible"
       id="marker5128"
       refX="0.0"
       refY="0.0"
       orient="auto"
       inkscape:stockid="SquareL">
      <path
         transform="scale(0.8)"
         style="fill-rule:evenodd;stroke:#000000;stroke-width:1pt;stroke-opacity:1;fill:#000000;fill-opacity:1"
         d="M -5.0,-5.0 L -5.0,5.0 L 5.0,5.0 L 5.0,-5.0 L -5.0,-5.0 z "
         id="path5126" />
    </marker>
    <marker
       inkscape:isstock="true"
       style="overflow:visible"
       id="marker4986"
       refX="0.0"
       refY="0.0"
       orient="auto"
       inkscape:stockid="SquareL">
      <path
         transform="scale(0.8)"
         style="fill-rule:evenodd;stroke:#000000;stroke-width:1pt;stroke-opacity:1;fill:#000000;fill-opacity:1"
         d="M -5.0,-5.0 L -5.0,5.0 L 5.0,5.0 L 5.0,-5.0 L -5.0,-5.0 z "
         id="path4984" />
    </marker>
    <marker
       inkscape:isstock="true"
       style="overflow:visible"
       id="marker4850"
       refX="0.0"
       refY="0.0"
       orient="auto"
       inkscape:stockid="SquareL">
      <path
         transform="scale(0.8)"
         style="fill-rule:evenodd;stroke:#000000;stroke-width:1pt;stroke-opacity:1;fill:#000000;fill-opacity:1"
         d="M -5.0,-5.0 L -5.0,5.0 L 5.0,5.0 L 5.0,-5.0 L -5.0,-5.0 z "
         id="path4848" />
    </marker>
    <marker
       inkscape:isstock="true"
       style="overflow:visible"
       id="marker4720"
       refX="0.0"
       refY="0.0"
       orient="auto"
       inkscape:stockid="SquareL">
      <path
         transform="scale(0.8)"
         style="fill-rule:evenodd;stroke:#000000;stroke-width:1pt;stroke-opacity:1;fill:#000000;fill-opacity:1"
         d="M -5.0,-5.0 L -5.0,5.0 L 5.0,5.0 L 5.0,-5.0 L -5.0,-5.0 z "
         id="path4718" />
    </marker>
    <marker
       inkscape:isstock="true"
       style="overflow:visible"
       id="marker4596"
       refX="0.0"
       refY="0.0"
       orient="auto"
       inkscape:stockid="SquareL">
      <path
         transform="scale(0.8)"
         style="fill-rule:evenodd;stroke:#000000;stroke-width:1pt;stroke-opacity:1;fill:#000000;fill-opacity:1"
         d="M -5.0,-5.0 L -5.0,5.0 L 5.0,5.0 L 5.0,-5.0 L -5.0,-5.0 z "
         id="path4594" />
    </marker>
    <marker
       inkscape:isstock="true"
       style="overflow:visible"
       id="marker4478"
       refX="0.0"
       refY="0.0"
       orient="auto"
       inkscape:stockid="SquareL">
      <path
         transform="scale(0.8)"
         style="fill-rule:evenodd;stroke:#000000;stroke-width:1pt;stroke-opacity:1;fill:#000000;fill-opacity:1"
         d="M -5.0,-5.0 L -5.0,5.0 L 5.0,5.0 L 5.0,-5.0 L -5.0,-5.0 z "
         id="path4476" />
    </marker>
    <marker
       inkscape:isstock="true"
       style="overflow:visible"
       id="marker4366"
       refX="0.0"
       refY="0.0"
       orient="auto"
       inkscape:stockid="SquareL">
      <path
         transform="scale(0.8)"
         style="fill-rule:evenodd;stroke:#000000;stroke-width:1pt;stroke-opacity:1;fill:#000000;fill-opacity:1"
         d="M -5.0,-5.0 L -5.0,5.0 L 5.0,5.0 L 5.0,-5.0 L -5.0,-5.0 z "
         id="path4364" />
    </marker>
    <marker
       inkscape:isstock="true"
       style="overflow:visible"
       id="marker4260"
       refX="0.0"
       refY="0.0"
       orient="auto"
       inkscape:stockid="SquareL">
      <path
         transform="scale(0.8)"
         style="fill-rule:evenodd;stroke:#000000;stroke-width:1pt;stroke-opacity:1;fill:#000000;fill-opacity:1"
         d="M -5.0,-5.0 L -5.0,5.0 L 5.0,5.0 L 5.0,-5.0 L -5.0,-5.0 z "
         id="path4258" />
    </marker>
    <marker
       inkscape:isstock="true"
       style="overflow:visible"
       id="marker4160"
       refX="0.0"
       refY="0.0"
       orient="auto"
       inkscape:stockid="SquareL">
      <path
         transform="scale(0.8)"
         style="fill-rule:evenodd;stroke:#000000;stroke-width:1pt;stroke-opacity:1;fill:#000000;fill-opacity:1"
         d="M -5.0,-5.0 L -5.0,5.0 L 5.0,5.0 L 5.0,-5.0 L -5.0,-5.0 z "
         id="path4158" />
    </marker>
    <marker
       inkscape:isstock="true"
       style="overflow:visible"
       id="marker4066"
       refX="0.0"
       refY="0.0"
       orient="auto"
       inkscape:stockid="SquareL">
      <path
         transform="scale(0.8)"
         style="fill-rule:evenodd;stroke:#000000;stroke-width:1pt;stroke-opacity:1;fill:#000000;fill-opacity:1"
         d="M -5.0,-5.0 L -5.0,5.0 L 5.0,5.0 L 5.0,-5.0 L -5.0,-5.0 z "
         id="path4064" />
    </marker>
    <marker
       inkscape:isstock="true"
       style="overflow:visible"
       id="marker3978"
       refX="0.0"
       refY="0.0"
       orient="auto"
       inkscape:stockid="SquareL">
      <path
         transform="scale(0.8)"
         style="fill-rule:evenodd;stroke:#000000;stroke-width:1pt;stroke-opacity:1;fill:#000000;fill-opacity:1"
         d="M -5.0,-5.0 L -5.0,5.0 L 5.0,5.0 L 5.0,-5.0 L -5.0,-5.0 z "
         id="path3976" />
    </marker>
    <marker
       inkscape:isstock="true"
       style="overflow:visible"
       id="marker3896"
       refX="0.0"
       refY="0.0"
       orient="auto"
       inkscape:stockid="SquareL">
      <path
         transform="scale(0.8)"
         style="fill-rule:evenodd;stroke:#000000;stroke-width:1pt;stroke-opacity:1;fill:#000000;fill-opacity:1"
         d="M -5.0,-5.0 L -5.0,5.0 L 5.0,5.0 L 5.0,-5.0 L -5.0,-5.0 z "
         id="path3894" />
    </marker>
    <marker
       inkscape:isstock="true"
       style="overflow:visible"
       id="marker3820"
       refX="0.0"
       refY="0.0"
       orient="auto"
       inkscape:stockid="SquareL">
      <path
         transform="scale(0.8)"
         style="fill-rule:evenodd;stroke:#000000;stroke-width:1pt;stroke-opacity:1;fill:#000000;fill-opacity:1"
         d="M -5.0,-5.0 L -5.0,5.0 L 5.0,5.0 L 5.0,-5.0 L -5.0,-5.0 z "
         id="path3818" />
    </marker>
    <marker
       inkscape:isstock="true"
       style="overflow:visible"
       id="marker3750"
       refX="0.0"
       refY="0.0"
       orient="auto"
       inkscape:stockid="SquareL">
      <path
         transform="scale(0.8)"
         style="fill-rule:evenodd;stroke:#000000;stroke-width:1pt;stroke-opacity:1;fill:#000000;fill-opacity:1"
         d="M -5.0,-5.0 L -5.0,5.0 L 5.0,5.0 L 5.0,-5.0 L -5.0,-5.0 z "
         id="path3748" />
    </marker>
    <marker
       inkscape:isstock="true"
       style="overflow:visible"
       id="marker3686"
       refX="0.0"
       refY="0.0"
       orient="auto"
       inkscape:stockid="SquareL">
      <path
         transform="scale(0.8)"
         style="fill-rule:evenodd;stroke:#000000;stroke-width:1pt;stroke-opacity:1;fill:#000000;fill-opacity:1"
         d="M -5.0,-5.0 L -5.0,5.0 L 5.0,5.0 L 5.0,-5.0 L -5.0,-5.0 z "
         id="path3684" />
    </marker>
    <marker
       inkscape:isstock="true"
       style="overflow:visible"
       id="marker3628"
       refX="0.0"
       refY="0.0"
       orient="auto"
       inkscape:stockid="SquareL">
      <path
         transform="scale(0.8)"
         style="fill-rule:evenodd;stroke:#000000;stroke-width:1pt;stroke-opacity:1;fill:#000000;fill-opacity:1"
         d="M -5.0,-5.0 L -5.0,5.0 L 5.0,5.0 L 5.0,-5.0 L -5.0,-5.0 z "
         id="path3626" />
    </marker>
    <marker
       inkscape:isstock="true"
       style="overflow:visible"
       id="marker3576"
       refX="0.0"
       refY="0.0"
       orient="auto"
       inkscape:stockid="SquareL">
      <path
         transform="scale(0.8)"
         style="fill-rule:evenodd;stroke:#000000;stroke-width:1pt;stroke-opacity:1;fill:#000000;fill-opacity:1"
         d="M -5.0,-5.0 L -5.0,5.0 L 5.0,5.0 L 5.0,-5.0 L -5.0,-5.0 z "
         id="path3574" />
    </marker>
    <marker
       inkscape:isstock="true"
       style="overflow:visible"
       id="marker3530"
       refX="0.0"
       refY="0.0"
       orient="auto"
       inkscape:stockid="SquareL">
      <path
         transform="scale(0.8)"
         style="fill-rule:evenodd;stroke:#000000;stroke-width:1pt;stroke-opacity:1;fill:#000000;fill-opacity:1"
         d="M -5.0,-5.0 L -5.0,5.0 L 5.0,5.0 L 5.0,-5.0 L -5.0,-5.0 z "
         id="path3528" />
    </marker>
    <marker
       inkscape:isstock="true"
       style="overflow:visible"
       id="marker3490"
       refX="0.0"
       refY="0.0"
       orient="auto"
       inkscape:stockid="SquareL">
      <path
         transform="scale(0.8)"
         style="fill-rule:evenodd;stroke:#000000;stroke-width:1pt;stroke-opacity:1;fill:#000000;fill-opacity:1"
         d="M -5.0,-5.0 L -5.0,5.0 L 5.0,5.0 L 5.0,-5.0 L -5.0,-5.0 z "
         id="path3488" />
    </marker>
    <marker
       inkscape:isstock="true"
       style="overflow:visible"
       id="marker3456"
       refX="0.0"
       refY="0.0"
       orient="auto"
       inkscape:stockid="SquareL">
      <path
         transform="scale(0.8)"
         style="fill-rule:evenodd;stroke:#000000;stroke-width:1pt;stroke-opacity:1;fill:#000000;fill-opacity:1"
         d="M -5.0,-5.0 L -5.0,5.0 L 5.0,5.0 L 5.0,-5.0 L -5.0,-5.0 z "
         id="path3454" />
    </marker>
    <marker
       inkscape:isstock="true"
       style="overflow:visible"
       id="marker3428"
       refX="0.0"
       refY="0.0"
       orient="auto"
       inkscape:stockid="SquareL">
      <path
         transform="scale(0.8)"
         style="fill-rule:evenodd;stroke:#000000;stroke-width:1pt;stroke-opacity:1;fill:#000000;fill-opacity:1"
         d="M -5.0,-5.0 L -5.0,5.0 L 5.0,5.0 L 5.0,-5.0 L -5.0,-5.0 z "
         id="path3426" />
    </marker>
    <marker
       inkscape:isstock="true"
       style="overflow:visible"
       id="marker3406"
       refX="0.0"
       refY="0.0"
       orient="auto"
       inkscape:stockid="SquareL">
      <path
         transform="scale(0.8)"
         style="fill-rule:evenodd;stroke:#000000;stroke-width:1pt;stroke-opacity:1;fill:#000000;fill-opacity:1"
         d="M -5.0,-5.0 L -5.0,5.0 L 5.0,5.0 L 5.0,-5.0 L -5.0,-5.0 z "
         id="path3404" />
    </marker>
    <linearGradient
       id="linearGradient1452"
       osb:paint="solid">
      <stop
         style="stop-color:#00ffff;stop-opacity:1;"
         offset="0"
         id="stop1450" />
    </linearGradient>
  </defs>
  <sodipodi:namedview
     id="base"
     pagecolor="#ffffff"
     bordercolor="#666666"
     borderopacity="1.0"
     inkscape:pageopacity="0.0"
     inkscape:pageshadow="2"
     inkscape:zoom="0.92"
     inkscape:cx="-35.112543"
     inkscape:cy="330.67719"
     inkscape:document-units="mm"
     inkscape:current-layer="layer5"
     showgrid="false"
     inkscape:window-width="1920"
     inkscape:window-height="986"
     inkscape:window-x="-11"
     inkscape:window-y="-11"
     inkscape:window-maximized="1"
     inkscape:snap-bbox="true" />
  <metadata
     id="metadata5">
    <rdf:RDF>
      <cc:Work
         rdf:about="">
        <dc:format>image/svg+xml</dc:format>
        <dc:type
           rdf:resource="http://purl.org/dc/dcmitype/StillImage" />
        <dc:title />
      </cc:Work>
    </rdf:RDF>
  </metadata>
  <g
     inkscape:groupmode="layer"
     id="layer2"
     inkscape:label="circle"
     sodipodi:insensitive="true"
     style="display:inline">
    <circle
       style="fill:#e8ddaa;fill-opacity:1;stroke:none;stroke-width:1.56500006;stroke-miterlimit:4;stroke-dasharray:none;stroke-dashoffset:0;stroke-opacity:1"
       id="path1422"
       cx="80.508934"
       cy="78.241066"
       r="71.059525" />
  </g>
  <g
     inkscape:groupmode="layer"
     id="layer3"
     inkscape:label="crater-details"
     sodipodi:insensitive="true"
     style="display:inline">
    <path
       style="fill:#978b51;fill-opacity:1;stroke:none;stroke-width:0.26458332px;stroke-linecap:butt;stroke-linejoin:miter;stroke-opacity:1"
       d="m 10.583333,75.595238 4.157738,-18.898811 14.741071,-25.702379 14.363097,-11.339286 12.095236,-3.02381 -5.291666,8.315476 h -7.559525 l -4.91369,10.961311 8.315478,0.377976 9.827379,-9.827382 6.425597,5.291667 4.91369,-7.181548 9.827379,1.511905 6.425597,6.80357 V 44.60119 l -11.717263,11.717261 -9.449403,4.157739 6.803569,7.559524 8.315476,-2.645833 9.07143,3.779761 -5.669642,9.07143 -13.607143,-0.755955 3.023809,10.205358 -10.583333,4.157739 7.181546,9.449406 -3.779761,13.22916 -12.095239,2.64584 -3.779761,-15.875 -7.181548,3.77976 -3.023809,8.31548 -10.961309,-4.15774 0.755953,-7.9375 8.693452,-1.511906 0.377976,-5.669643 -7.181547,-1.133928 -7.559524,7.559527 -6.425595,-3.401789 -4.157738,-19.654762 z"
       id="path1461"
       inkscape:connector-curvature="0" />
    <path
       style="fill:none;stroke:#000000;stroke-width:0.26458332px;stroke-linecap:butt;stroke-linejoin:miter;stroke-opacity:1"
       d="M 214.69047,114.90476 Z"
       id="path1463"
       inkscape:connector-curvature="0" />
    <path
       style="fill:#978b51;fill-opacity:1;stroke:none;stroke-width:0.26458332px;stroke-linecap:butt;stroke-linejoin:miter;stroke-opacity:1"
       d="m 91.09226,40.065475 -7.181546,4.535715 2.267857,12.851191 13.229167,2.267857 -12.473215,9.449404 12.851191,13.985118 10.205356,-3.401785 4.53572,7.559525 6.04761,-7.559524 8.31548,4.157738 4.91369,-10.961309 -1.5119,13.229166 4.91369,10.583334 6.80357,-20.032738 -10.96131,-11.717262 -12.09524,-3.02381 -0.75595,-12.095238 -13.98512,6.803572 2.64583,-13.607143 -2.26785,-6.425596 -13.229171,-2.645833 z"
       id="path1465"
       inkscape:connector-curvature="0" />
    <path
       style="fill:#978b51;fill-opacity:1;stroke:none;stroke-width:0.26458332px;stroke-linecap:butt;stroke-linejoin:miter;stroke-opacity:1"
       d="m 129.26786,50.648809 7.9375,-2.267858 3.40178,3.779763 2.26786,5.291667 -2.26786,4.157737 -10.96131,-4.157737 z"
       id="path1471"
       inkscape:connector-curvature="0" />
    <path
       style="fill:none;stroke:#000000;stroke-width:0.26458332px;stroke-linecap:butt;stroke-linejoin:miter;stroke-opacity:1"
       d="M 198.81547,80.508926 Z"
       id="path1473"
       inkscape:connector-curvature="0" />
    <path
       style="fill:#6e663b;fill-opacity:1;stroke:none;stroke-width:0.26458332px;stroke-linecap:butt;stroke-linejoin:miter;stroke-opacity:1"
       d="M 19.654762,86.556547 18.142857,63.499999 25.324405,52.53869 Z"
       id="path1475"
       inkscape:connector-curvature="0" />
    <path
       style="fill:#6e663b;fill-opacity:1;stroke:none;stroke-width:0.26458332px;stroke-linecap:butt;stroke-linejoin:miter;stroke-opacity:1"
       d="m 51.40476,117.17262 12.095239,-2.64584 3.779761,-13.22916 z"
       id="path1479"
       inkscape:connector-curvature="0" />
    <path
       style="fill:none;stroke:#000000;stroke-width:0.26458332px;stroke-linecap:butt;stroke-linejoin:miter;stroke-opacity:1"
       d="M 201.83928,114.52678 Z"
       id="path1481"
       inkscape:connector-curvature="0" />
    <path
       style="fill:#6e663b;fill-opacity:1;stroke:none;stroke-width:0.26458332px;stroke-linecap:butt;stroke-linejoin:miter;stroke-opacity:1"
       d="M 46.491072,36.285715 56.318451,26.458333 69.925593,37.797618 57.830357,48.380951 Z"
       id="path1483"
       inkscape:connector-curvature="0" />
    <path
       style="fill:#6e663b;fill-opacity:1;stroke:none;stroke-width:0.26458332px;stroke-linecap:butt;stroke-linejoin:miter;stroke-opacity:1"
       d="m 106.58929,36.66369 2.26785,6.425594 -2.64583,13.607145 13.98512,-6.803572 0.75595,12.095236 12.09524,3.023812 -23.05655,14.74107 L 99.785714,83.15476 86.934523,69.169642 99.407738,59.720238 Z"
       id="path1487"
       inkscape:connector-curvature="0" />
    <path
       style="fill:#f8f3d7;fill-opacity:1;stroke:none;stroke-width:0.26458332px;stroke-linecap:butt;stroke-linejoin:miter;stroke-opacity:1"
       d="m 71.059523,128.88988 -15.875,-29.104166 18.520834,26.836306 -2.267858,-15.875 5.669643,8.69345 1.13393,-16.63095 0.755951,20.78869 6.425594,-22.30059 -4.157736,20.41071 19.654759,-27.214283 -18.520832,31.372023 33.639882,-29.86012 -32.127976,32.12798 27.592256,-15.11905 -24.946423,18.14286 6.047619,7.55952 -11.339285,-5.29167 1.511903,13.22917 -6.047618,-12.09524 0.755951,12.85119 -3.77976,-14.74107 -6.803573,13.22917 z"
       id="path1493"
       inkscape:connector-curvature="0" />
    <path
       style="fill:#f8f3d7;fill-opacity:1;stroke:none;stroke-width:0.26458332px;stroke-linecap:butt;stroke-linejoin:miter;stroke-opacity:1"
       d="m 130.77976,107.34524 -1.13393,-11.717265 4.53572,9.449405 3.02381,-8.315475 -1.88989,11.339285 -9.07142,13.60714 z"
       id="path1497"
       inkscape:connector-curvature="0" />
    <path
       style="fill:none;stroke:#000000;stroke-width:0.26458332px;stroke-linecap:butt;stroke-linejoin:miter;stroke-opacity:1"
       d="M 219.60416,127.75595 Z"
       id="path1499"
       inkscape:connector-curvature="0" />
    <path
       style="fill:#f8f3d7;fill-opacity:1;stroke:none;stroke-width:0.26458332px;stroke-linecap:butt;stroke-linejoin:miter;stroke-opacity:1"
       d="m 26.458333,109.23512 -4.91369,-8.69345 -4.535715,7.9375 9.071429,10.20535 z"
       id="path1501"
       inkscape:connector-curvature="0" />
    <path
       style="fill:none;stroke:#000000;stroke-width:0.26458332px;stroke-linecap:butt;stroke-linejoin:miter;stroke-opacity:1"
       d="M 201.83928,114.52678 Z"
       id="path1503"
       inkscape:connector-curvature="0" />
    <path
       style="fill:#f8f3d7;fill-opacity:1;stroke:none;stroke-width:0.26458332px;stroke-linecap:butt;stroke-linejoin:miter;stroke-opacity:1"
       d="M 100.54167,15.119047 63.122023,11.339286 86.556547,8.315476 109.99107,13.985119 133.42559,33.261905 142.875,57.452381 130.77976,34.395833 102.05357,15.875 Z"
       id="path1505"
       inkscape:connector-curvature="0" />
    <path
       inkscape:connector-curvature="0"
       id="path1507"
       d="M 100.54167,15.119047 63.122023,11.339286 86.556547,8.315476 109.99107,13.985119 133.42559,33.261905 142.875,57.452381 130.77976,34.395833 102.05357,15.875 Z"
       style="fill:#f8f3d7;fill-opacity:1;stroke:none;stroke-width:0.26458332px;stroke-linecap:butt;stroke-linejoin:miter;stroke-opacity:1" />
    <path
       style="fill:none;stroke:#000000;stroke-width:0.26458332px;stroke-linecap:butt;stroke-linejoin:miter;stroke-opacity:1"
       d="M 232.07738,100.16369 Z"
       id="path1509"
       inkscape:connector-curvature="0" />
    <path
       style="fill:#f8f3d7;fill-opacity:1;stroke:none;stroke-width:0.26458332px;stroke-linecap:butt;stroke-linejoin:miter;stroke-opacity:1"
       d="m 50.648809,68.035714 1.511905,-4.157739 4.157737,3.779763 z"
       id="path1511"
       inkscape:connector-curvature="0" />
    <path
       style="fill:none;stroke:#000000;stroke-width:0.26458332px;stroke-linecap:butt;stroke-linejoin:miter;stroke-opacity:1"
       d="M 25.324405,52.53869 Z"
       id="path1515"
       inkscape:connector-curvature="0" />
    <path
       style="fill:none;stroke:#000000;stroke-width:0.26458332px;stroke-linecap:butt;stroke-linejoin:miter;stroke-opacity:1"
       d="M 230.1875,75.21726 Z"
       id="path1517"
       inkscape:connector-curvature="0" />
    <path
       style="fill:#ceb44b;fill-opacity:1;stroke:none;stroke-width:0.26458332px;stroke-linecap:butt;stroke-linejoin:miter;stroke-opacity:1"
       d="m 67.27976,101.29762 -7.181546,-9.449406 10.583331,-4.157739 -3.023807,-10.205358 13.607143,0.755955 5.669642,-9.07143 12.851191,13.985118 10.205356,-3.401785 4.53572,7.559524 1.5119,8.693449 -33.639882,29.860122 18.520832,-31.372025 -19.654759,27.214285 4.157736,-20.41071 -8.315475,18.14285 1.13393,-16.63095 -1.13393,16.63095 -5.669643,-8.69345 2.267858,15.875 -10.205358,-12.09524 z"
       id="path1519"
       inkscape:connector-curvature="0" />
    <path
       style="fill:none;stroke:#000000;stroke-width:0.26458332px;stroke-linecap:butt;stroke-linejoin:miter;stroke-opacity:1"
       d="M 206.375,94.872023 Z"
       id="path1521"
       inkscape:connector-curvature="0" />
    <path
       style="fill:#ceb44b;fill-opacity:1;stroke:none;stroke-width:0.26458332px;stroke-linecap:butt;stroke-linejoin:miter;stroke-opacity:1"
       d="m 39.6875,67.27976 -3.779761,-7.559522 -3.401788,9.071428 7.9375,8.693451 z"
       id="path1523"
       inkscape:connector-curvature="0" />
    <path
       inkscape:connector-curvature="0"
       id="path1525"
       d="m 39.6875,67.27976 -3.779761,-7.559522 -3.401788,9.071428 7.9375,8.693451 z"
       style="fill:#ceb44b;fill-opacity:1;stroke:none;stroke-width:0.26458332px;stroke-linecap:butt;stroke-linejoin:miter;stroke-opacity:1" />
    <path
       style="fill:none;stroke:#000000;stroke-width:0.26458332px;stroke-linecap:butt;stroke-linejoin:miter;stroke-opacity:1"
       d="M 206.375,94.872023 Z"
       id="path1527"
       inkscape:connector-curvature="0" />
    <path
       style="fill:#ceb44b;fill-opacity:1;stroke:none;stroke-width:0.26458332px;stroke-linecap:butt;stroke-linejoin:miter;stroke-opacity:1"
       d="M 83.910714,44.60119 V 32.883927 l -6.425597,-6.80357 -9.827379,-1.511905 25.702379,9.449405 -2.267857,6.047618 z"
       id="path1531"
       inkscape:connector-curvature="0" />
    <path
       style="fill:none;stroke:#000000;stroke-width:0.26458332px;stroke-linecap:butt;stroke-linejoin:miter;stroke-opacity:1"
       d="M 198.81547,80.508924 Z"
       id="path1533"
       inkscape:connector-curvature="0" />
    <path
       style="fill:#ceb44b;fill-opacity:1;stroke:none;stroke-width:0.26458332px;stroke-linecap:butt;stroke-linejoin:miter;stroke-opacity:1"
       d="m 63.122023,11.339286 37.419647,3.779761 -2.645838,7.559524 z"
       id="path1537"
       inkscape:connector-curvature="0" />
    <path
       style="fill:none;stroke:#000000;stroke-width:0.26458332px;stroke-linecap:butt;stroke-linejoin:miter;stroke-opacity:1"
       d="M 215.06845,98.651784 Z"
       id="path1539"
       inkscape:connector-curvature="0" />
  </g>
  <g
     inkscape:groupmode="layer"
     id="layer5"
     inkscape:label="expression-2"
     style="display:inline">
    <path
       style="fill:#464232;fill-opacity:1;stroke:#000000;stroke-width:1.86500001;stroke-linecap:butt;stroke-linejoin:miter;stroke-miterlimit:4;stroke-dasharray:none;stroke-opacity:1"
       d="m 35.575226,80.497256 15.309454,6.649036 22.717911,-1.069078 19.149738,-6.52711 C 63.676539,112.17458 68.688609,109.69029 47.050588,107.00553 29.285906,101.31411 41.951087,89.231406 35.575226,80.497256 Z"
       id="path6439"
       inkscape:connector-curvature="0"
       sodipodi:nodetypes="cccccc" />
    <ellipse
       style="fill:#554b26;fill-opacity:1;stroke:#000000;stroke-width:1.04400003;stroke-linejoin:round;stroke-miterlimit:4;stroke-dasharray:none;stroke-dashoffset:0;stroke-opacity:1"
       id="path6466"
       cx="39.64724"
       cy="59.099865"
       rx="1.8693388"
       ry="3.019701" />
    <ellipse
       style="fill:#383425;fill-opacity:1;stroke:#000000;stroke-width:1.00100005;stroke-linejoin:round;stroke-miterlimit:4;stroke-dasharray:none;stroke-dashoffset:0;stroke-opacity:1"
       id="path6468"
       cx="84.983017"
       cy="58.093296"
       rx="2.1569293"
       ry="4.313859" />
    <path
       style="fill:none;stroke:#000000;stroke-width:0.26458332px;stroke-linecap:butt;stroke-linejoin:miter;stroke-opacity:1"
       d="M 180.89447,96.630433 Z"
       id="path6634"
       inkscape:connector-curvature="0" />
    <path
       style="fill:#ffffff;fill-opacity:1;stroke:#dedbce;stroke-width:0.565;stroke-linecap:butt;stroke-linejoin:miter;stroke-miterlimit:4;stroke-dasharray:none;stroke-opacity:1"
       d="m 80.675748,84.577513 -0.718976,7.693048 -6.902172,2.588315 -5.751811,-8.052535 -4.601451,8.627716 v 0 l -4.88904,-2.588316 v -4.88904 l -4.026267,5.751812 -5.176631,-0.287589 2.804448,-5.745467 -6.543125,4.307512 -2.875907,-3.451085 -5.890423,-7.505461 15.309455,6.649034 -0.529168,-0.529165 15.555337,-0.915134 7.691742,0.375221 z"
       id="path6638"
       inkscape:connector-curvature="0"
       sodipodi:nodetypes="ccccccccccccccccccc" />
    <path
       style="fill:none;stroke:#000000;stroke-width:0.26458332px;stroke-linecap:butt;stroke-linejoin:miter;stroke-opacity:1"
       d="M 98.068385,56.942934 Z"
       id="path6642"
       inkscape:connector-curvature="0" />
    <path
       style="fill:none;stroke:#000000;stroke-width:0.26458332px;stroke-linecap:butt;stroke-linejoin:miter;stroke-opacity:1"
       d="M 191.53532,61.544384 Z"
       id="path6646"
       inkscape:connector-curvature="0" />
    <path
       style="fill:none;stroke:#000000;stroke-width:1.06500006;stroke-linecap:butt;stroke-linejoin:miter;stroke-miterlimit:4;stroke-dasharray:none;stroke-opacity:1"
       d="m 30.806699,48.775356 5.46422,5.751812 18.405798,6.039403 10.928442,-7.764947"
       id="path6699"
       inkscape:connector-curvature="0" />
    <path
       style="fill:none;stroke:#000000;stroke-width:1.06500006;stroke-linecap:butt;stroke-linejoin:miter;stroke-miterlimit:4;stroke-dasharray:none;stroke-opacity:1"
       d="m 74.31341,49.166484 8.915307,4.889039 19.556173,-7.764946"
       id="path6701"
       inkscape:connector-curvature="0" />
    <path
       style="fill:none;stroke:#000000;stroke-width:0.86500001;stroke-linecap:butt;stroke-linejoin:miter;stroke-miterlimit:4;stroke-dasharray:none;stroke-opacity:1"
       d="m 32.497736,64.420289 c 0,0 12.653984,-5.46422 25.88315,1.437952"
       id="path6703"
       inkscape:connector-curvature="0" />
    <path
       style="fill:none;stroke:#000000;stroke-width:0.86500001;stroke-linecap:butt;stroke-linejoin:miter;stroke-miterlimit:4;stroke-dasharray:none;stroke-opacity:1"
       d="m 77.315852,67.549277 c 0,0 13.229162,-10.928445 21.2817,-6.902174"
       id="path6705"
       inkscape:connector-curvature="0" />
    <path
       style="fill:none;stroke:#000000;stroke-width:0.86500001;stroke-linecap:butt;stroke-linejoin:miter;stroke-miterlimit:4;stroke-dasharray:none;stroke-opacity:1"
       d="m 85.628063,106.01738 c 0,0 -32.933229,25.93245 -50.615942,6.90217"
       id="path6707"
       inkscape:connector-curvature="0" />
  </g>
</svg>
